<?xml version="1.0" encoding="UTF-8" standalone="no"?>
<!-- Created with Inkscape (http://www.inkscape.org/) -->

<svg
   xmlns:dc="http://purl.org/dc/elements/1.1/"
   xmlns:cc="http://creativecommons.org/ns#"
   xmlns:rdf="http://www.w3.org/1999/02/22-rdf-syntax-ns#"
   xmlns:svg="http://www.w3.org/2000/svg"
   xmlns="http://www.w3.org/2000/svg"
   xmlns:sodipodi="http://sodipodi.sourceforge.net/DTD/sodipodi-0.dtd"
   xmlns:inkscape="http://www.inkscape.org/namespaces/inkscape"
   width="195.71574mm"
   height="64.44558mm"
   viewBox="0 0 195.71575 64.44558"
   version="1.1"
   id="svg8"
   inkscape:version="0.92.2 5c3e80d, 2017-08-06"
   sodipodi:docname="logo-3.svg">
  <defs
     id="defs2" />
  <sodipodi:namedview
     id="base"
     pagecolor="#ffffff"
     bordercolor="#666666"
     borderopacity="1.0"
     inkscape:pageopacity="0.0"
     inkscape:pageshadow="2"
     inkscape:zoom="0.55629946"
     inkscape:cx="678.65969"
     inkscape:cy="49.88319"
     inkscape:document-units="mm"
     inkscape:current-layer="text909"
     showgrid="false"
     inkscape:window-width="1280"
     inkscape:window-height="755"
     inkscape:window-x="0"
     inkscape:window-y="1"
     inkscape:window-maximized="1"
     fit-margin-top="0"
     fit-margin-left="0"
     fit-margin-right="0"
     fit-margin-bottom="0"
     showguides="false"
     inkscape:guide-bbox="true">
    <sodipodi:guide
       position="47.92751,19.008098"
       orientation="0.83048854,0.55703571"
       id="guide935"
       inkscape:locked="false" />
    <sodipodi:guide
       position="45.18301,2.4581784"
       orientation="0.82896665,0.55929803"
       id="guide937"
       inkscape:locked="false" />
    <sodipodi:guide
       position="103.51105,-1.5453246e-06"
       orientation="0,1"
       id="guide939"
       inkscape:locked="false" />
    <sodipodi:guide
       position="51.94248,-1.1545325e-05"
       orientation="-0.55664576,0.83074996"
       id="guide4634"
       inkscape:locked="false" />
    <sodipodi:guide
       position="32.54007,23.088138"
       orientation="-0.55664576,0.83074996"
       id="guide4696"
       inkscape:locked="false" />
  </sodipodi:namedview>
  <metadata
     id="metadata5">
    <rdf:RDF>
      <cc:Work
         rdf:about="">
        <dc:format>image/svg+xml</dc:format>
        <dc:type
           rdf:resource="http://purl.org/dc/dcmitype/StillImage" />
        <dc:title></dc:title>
      </cc:Work>
    </rdf:RDF>
  </metadata>
  <g
     inkscape:label="Layer 1"
     inkscape:groupmode="layer"
     id="layer1"
     transform="translate(401.11205,-146.44263)">
    <g
       aria-label=" Quggle  "
       style="font-style:normal;font-weight:normal;font-size:12.61136532px;line-height:1.25;font-family:sans-serif;letter-spacing:0px;word-spacing:0px;fill:#386662;fill-opacity:1;stroke:none;stroke-width:0.31528413"
       id="text909">
      <path
         d="m -298.65933,210.88821 q -3.1478,0 -5.62972,-0.84748 -2.42138,-0.78695 -4.23742,-2.11871 -1.81603,-1.27123 -3.02672,-2.84513 -1.21069,-1.5739 -1.75551,-3.14779 l 7.56682,-3.02673 q 0.84749,2.36084 2.78459,3.63207 1.93711,1.33176 4.29796,1.33176 3.75314,0 5.93238,-2.36085 2.17925,-2.30031 2.17925,-6.47719 v -2.05818 h -0.48428 q -1.39229,1.93711 -3.69261,3.08726 -2.23977,1.08963 -5.32704,1.08963 -2.66352,0 -5.20597,-1.08963 -2.48192,-1.08962 -4.41902,-3.08726 -1.93711,-2.05817 -3.1478,-4.9033 -1.21069,-2.84512 -1.21069,-6.35613 0,-3.511 1.21069,-6.35613 1.21069,-2.90565 3.1478,-4.90329 1.9371,-2.05818 4.41902,-3.1478 2.54245,-1.08962 5.20597,-1.08962 3.08727,0 5.32704,1.15015 2.30032,1.08962 3.69261,3.02673 h 0.48428 v -3.20833 h 7.56682 v 27.54322 q 0,3.75315 -1.15016,6.71934 -1.15016,3.02673 -3.20833,5.0849 -2.05818,2.11871 -4.96383,3.20833 -2.84513,1.15016 -6.35613,1.15016 z m 0.30267,-20.88442 q 1.45283,0 2.84512,-0.54481 1.45283,-0.54481 2.54246,-1.5739 1.08962,-1.08962 1.7555,-2.60299 0.66588,-1.5739 0.66588,-3.57154 0,-1.99764 -0.66588,-3.57154 -0.66588,-1.57389 -1.7555,-2.60298 -1.08963,-1.08962 -2.54246,-1.63443 -1.39229,-0.54482 -2.84512,-0.54482 -1.45283,0 -2.84512,0.54482 -1.3923,0.54481 -2.48192,1.63443 -1.08962,1.08962 -1.7555,2.66352 -0.66588,1.51336 -0.66588,3.511 0,1.99764 0.66588,3.57154 0.66588,1.51337 1.7555,2.60299 1.08962,1.02909 2.48192,1.5739 1.39229,0.54481 2.84512,0.54481 z"
         style="fill:#999999;fill-opacity:1"
         id="path915"
         inkscape:connector-curvature="0" />
      <path
         d="m -245.62879,196.84419 v -43.34274 h 7.93002 v 43.34274 z"
         style="fill:#999999;fill-opacity:1"
         id="path919"
         inkscape:connector-curvature="0" />
      <path
         d="m -323.57848,192.96998 h -0.48428 q -1.39229,2.23978 -3.75314,3.57154 -2.36085,1.27123 -5.38757,1.27123 -5.62972,0 -8.41431,-3.45047 -2.72405,-3.45047 -2.72405,-9.20126 v -17.97876 h 7.93002 v 17.01021 q 0,3.20833 1.3923,4.78223 1.45283,1.51336 4.17688,1.51336 1.63444,0 2.84513,-0.66588 1.27122,-0.72641 2.11871,-1.87657 0.90802,-1.21069 1.33176,-2.78459 0.48427,-1.63443 0.48427,-3.45047 v -14.52829 h 7.93003 v 29.66193 h -7.44575 z"
         style="fill:#999999;fill-opacity:1"
         id="path913"
         inkscape:connector-curvature="0" />
      <path
         d="m -265.481,210.88821 q -3.1478,0 -5.62972,-0.84748 -2.42138,-0.78695 -4.23742,-2.11871 -1.81603,-1.27123 -3.02672,-2.84513 -1.21069,-1.5739 -1.75551,-3.14779 l 7.56682,-3.02673 q 0.84749,2.36084 2.78459,3.63207 1.93711,1.33176 4.29796,1.33176 3.75314,0 5.93238,-2.36085 2.17925,-2.30031 2.17925,-6.47719 v -2.05818 h -0.48428 q -1.39229,1.93711 -3.69261,3.08726 -2.23978,1.08963 -5.32704,1.08963 -2.66352,0 -5.20597,-1.08963 -2.48192,-1.08962 -4.41902,-3.08726 -1.93711,-2.05817 -3.1478,-4.9033 -1.21069,-2.84512 -1.21069,-6.35613 0,-3.511 1.21069,-6.35613 1.21069,-2.90565 3.1478,-4.90329 1.9371,-2.05818 4.41902,-3.1478 2.54245,-1.08962 5.20597,-1.08962 3.08726,0 5.32704,1.15015 2.30032,1.08962 3.69261,3.02673 h 0.48428 v -3.20833 h 7.56682 v 27.54322 q 0,3.75315 -1.15016,6.71934 -1.15016,3.02673 -3.20833,5.0849 -2.05818,2.11871 -4.96383,3.20833 -2.84513,1.15016 -6.35613,1.15016 z m 0.30267,-20.88442 q 1.45283,0 2.84512,-0.54481 1.45283,-0.54481 2.54246,-1.5739 1.08962,-1.08962 1.7555,-2.60299 0.66588,-1.5739 0.66588,-3.57154 0,-1.99764 -0.66588,-3.57154 -0.66588,-1.57389 -1.7555,-2.60298 -1.08963,-1.08962 -2.54246,-1.63443 -1.39229,-0.54482 -2.84512,-0.54482 -1.45283,0 -2.84512,0.54482 -1.3923,0.54481 -2.48192,1.63443 -1.08962,1.08962 -1.7555,2.66352 -0.66588,1.51336 -0.66588,3.511 0,1.99764 0.66588,3.57154 0.66588,1.51337 1.7555,2.60299 1.08962,1.02909 2.48192,1.5739 1.39229,0.54481 2.84512,0.54481 z"
         style="fill:#999999;fill-opacity:1"
         id="path917"
         inkscape:connector-curvature="0" />
      <path
         d="m -205.88057,189.70111 q -2.05818,3.63208 -5.56918,5.87186 -3.45047,2.23978 -8.47484,2.23978 -3.38993,0 -6.29559,-1.15016 -2.84513,-1.21069 -4.96384,-3.3294 -2.11871,-2.11871 -3.3294,-4.96384 -1.15015,-2.90565 -1.15015,-6.35612 0,-3.20834 1.15015,-6.05346 1.15016,-2.90566 3.20833,-5.02437 2.05818,-2.17924 4.84277,-3.45047 2.84512,-1.27122 6.23506,-1.27122 3.57154,0 6.35613,1.21069 2.78459,1.15015 4.66116,3.26886 1.87657,2.05818 2.84512,4.9033 0.96855,2.84513 0.96855,6.17453 0,0.42374 0,0.72641 -0.0605,0.36321 -0.0605,0.66588 -0.0605,0.30268 -0.0605,0.66588 h -22.33726 q 0.24214,1.81604 0.96856,3.1478 0.78695,1.27123 1.87657,2.17924 1.15015,0.84749 2.48192,1.27123 1.33176,0.36321 2.72405,0.36321 2.72406,0 4.47956,-1.21069 1.81603,-1.27123 2.84512,-3.1478 z m -7.20361,-11.50156 q -0.0605,-0.78695 -0.54481,-1.7555 -0.42375,-0.96856 -1.33177,-1.81604 -0.84748,-0.84748 -2.17924,-1.3923 -1.27122,-0.54481 -3.08726,-0.54481 -2.54245,0 -4.47956,1.45283 -1.9371,1.45283 -2.72405,4.05582 z"
         style="fill:#999999;fill-opacity:1"
         id="path921"
         inkscape:connector-curvature="0" />
      <g
         id="g860">
        <g
           transform="matrix(1.20874,0,0,1.20874,71.893559,-37.930294)"
           id="g4702">
          <path
             sodipodi:nodetypes="scccscccsccccccccscccsccccccccccccc"
             inkscape:connector-curvature="0"
             style="font-style:normal;font-variant:normal;font-weight:normal;font-stretch:normal;font-size:60.53455734px;font-family:'Harabara Mais Demo';-inkscape-font-specification:'Harabara Mais Demo';letter-spacing:0px;opacity:1;fill:#6776d4;fill-opacity:1;stroke-width:1.19162512"
             d="m -1463.7207,266.31445 c -12.2023,0 -23.5654,2.21146 -34.0898,6.63477 -10.372,4.42331 -19.3717,10.52381 -26.9981,18.30273 -7.6264,7.62641 -13.6509,16.70212 -18.0742,27.22657 -4.2708,10.3719 -6.4063,21.50517 -6.4063,33.40234 0,11.8972 2.1355,23.10839 6.4063,33.63281 4.4233,10.37191 10.4478,19.44764 18.0742,27.22656 7.6264,7.62641 16.6261,13.65092 26.9981,18.07422 10.5244,4.42334 21.8875,6.63477 34.0898,6.63477 6.4062,0 12.5826,-0.68582 18.5312,-2.0586 5.9486,-1.22014 11.5932,-2.97379 16.9317,-5.26171 l 12.4648,18.47461 6.7266,9.96679 22.8105,-15.37109 -6.625,-9.87891 -12.2695,-18.29297 c 8.5416,-7.77892 15.1779,-17.0826 19.9063,-27.91211 4.7283,-10.82948 7.0918,-22.57454 7.0918,-35.23437 0,-11.89717 -2.2115,-23.03044 -6.6348,-33.40234 -4.2708,-10.52445 -10.2193,-19.60016 -17.8457,-27.22657 -7.6264,-7.77892 -16.7021,-13.87942 -27.2266,-18.30273 -10.3719,-4.42331 -21.6591,-6.63477 -33.8613,-6.63477 z m -0.066,29.04102 c 31.2935,3.6e-4 56.6617,25.36864 56.6621,56.66211 7e-4,31.29423 -25.3679,56.6637 -56.6621,56.66406 -31.295,7.4e-4 -56.6648,-25.36905 -56.6641,-56.66406 4e-4,-31.29425 25.3699,-56.66285 56.6641,-56.66211 z m 70.7984,137.875 -22.8047,15.37305 12.9695,19.22147 22.7734,-15.37696 c 2.6294,3.90943 -12.6616,-18.80517 -12.9382,-19.21756 z m -0.025,0.10938 -22.7793,15.26367 z"
             id="path911"
             transform="matrix(0.26458333,0,0,0.26458333,18.59485,82.070792)" />
          <path
             style="fill:#6776d4;fill-opacity:1;stroke:#6776d4;stroke-width:0.26458332px;stroke-linecap:butt;stroke-linejoin:miter;stroke-opacity:1"
             d="m -365.93781,186.03505 6.09399,-4.0833 4.45402,6.64051 -5.90293,4.32753 z"
             id="path4698"
             inkscape:connector-curvature="0" />
        </g>
        <path
           inkscape:connector-curvature="0"
           id="path4704"
           d="m -375.76562,157.97461 a 1.70017,1.70017 0 0 0 -0.45313,0.0644 c -2.74289,0.73496 -5.17439,2.0768 -7.17383,3.83985 -1.79773,1.58519 -3.24905,3.509 -4.2793,5.64453 -0.87887,1.82175 -1.45227,3.79888 -1.67187,5.84765 a 1.70017,1.70017 0 1 0 3.38086,0.36133 c 0.17748,-1.65575 0.64133,-3.25422 1.35351,-4.73047 0.83486,-1.73051 2.01098,-3.29028 3.46485,-4.57226 1.61698,-1.42581 3.57446,-2.50984 5.80469,-3.10742 a 1.70017,1.70017 0 0 0 -0.42578,-3.34766 z"
           style="color:#000000;font-style:normal;font-variant:normal;font-weight:normal;font-stretch:normal;font-size:medium;line-height:1.25;font-family:sans-serif;font-variant-ligatures:normal;font-variant-position:normal;font-variant-caps:normal;font-variant-numeric:normal;font-variant-alternates:normal;font-feature-settings:normal;text-indent:0;text-align:start;text-decoration:none;text-decoration-line:none;text-decoration-style:solid;text-decoration-color:#000000;letter-spacing:0px;word-spacing:0px;text-transform:none;writing-mode:lr-tb;direction:ltr;text-orientation:mixed;dominant-baseline:auto;baseline-shift:baseline;text-anchor:start;white-space:normal;shape-padding:0;clip-rule:nonzero;display:inline;overflow:visible;visibility:visible;opacity:1;isolation:auto;mix-blend-mode:normal;color-interpolation:sRGB;color-interpolation-filters:linearRGB;solid-color:#000000;solid-opacity:1;vector-effect:none;fill:#e6e6e6;fill-opacity:1;fill-rule:nonzero;stroke:none;stroke-width:0.1;stroke-linecap:round;stroke-linejoin:round;stroke-miterlimit:4;stroke-dasharray:none;stroke-dashoffset:0;stroke-opacity:1;color-rendering:auto;image-rendering:auto;shape-rendering:auto;text-rendering:auto;enable-background:accumulate" />
      </g>
    </g>
  </g>
</svg>
